<?xml version="1.0" encoding="UTF-8"?>
<svg width="15px" height="15px" viewBox="0 0 15 15" version="1.1" xmlns="http://www.w3.org/2000/svg" xmlns:xlink="http://www.w3.org/1999/xlink">
    <!-- Generator: Sketch 63.1 (92452) - https://sketch.com -->
    <title>github-brands@3x</title>
    <desc>Created with Sketch.</desc>
    <g id="Page-1" stroke="none" stroke-width="1" fill="none" fill-rule="evenodd">
        <g id="Desktop" transform="translate(-20.000000, -475.000000)" fill="#000C44" fill-rule="nonzero">
            <g id="github-brands" transform="translate(20.000000, 475.000000)">
                <path d="M5.0171371,11.7762097 C5.0171371,11.8366935 4.94758065,11.8850806 4.85987903,11.8850806 C4.76008065,11.8941532 4.69052419,11.8457661 4.69052419,11.7762097 C4.69052419,11.7157258 4.76008065,11.6673387 4.84778226,11.6673387 C4.93850806,11.6582661 5.0171371,11.7066532 5.0171371,11.7762097 Z M4.0766129,11.640121 C4.05544355,11.7006048 4.11592742,11.7701613 4.20665323,11.7883065 C4.28528226,11.8185484 4.37600806,11.7883065 4.39415323,11.7278226 C4.41229839,11.6673387 4.35483871,11.5977823 4.2641129,11.5705645 C4.18548387,11.5493952 4.09778226,11.5796371 4.0766129,11.640121 Z M5.41330645,11.5887097 C5.32560484,11.609879 5.26512097,11.6673387 5.27419355,11.7368952 C5.28326613,11.797379 5.36189516,11.8366935 5.45262097,11.8155242 C5.54032258,11.7943548 5.60080645,11.7368952 5.59173387,11.6764113 C5.58266129,11.6189516 5.50100806,11.5796371 5.41330645,11.5887097 Z M7.40322581,0 C3.20866935,0 0,3.18447581 0,7.37903226 C0,10.7328629 2.1108871,13.6028226 5.12600806,14.6129032 C5.51310484,14.6824597 5.64919355,14.4435484 5.64919355,14.2469758 C5.64919355,14.0594758 5.64012097,13.0252016 5.64012097,12.390121 C5.64012097,12.390121 3.52318548,12.84375 3.07862903,11.4889113 C3.07862903,11.4889113 2.73387097,10.608871 2.23790323,10.3820565 C2.23790323,10.3820565 1.5453629,9.90725806 2.28629032,9.91633065 C2.28629032,9.91633065 3.03931452,9.97681452 3.45362903,10.6965726 C4.11592742,11.8639113 5.22580645,11.5282258 5.65826613,11.328629 C5.72782258,10.8447581 5.92439516,10.5090726 6.1421371,10.3094758 C4.4516129,10.1219758 2.74596774,9.87701613 2.74596774,6.96774194 C2.74596774,6.13608871 2.97580645,5.71875 3.45967742,5.18649194 C3.38104839,4.98991935 3.12399194,4.17943548 3.53830645,3.13306452 C4.1703629,2.93649194 5.625,3.94959677 5.625,3.94959677 C6.22983871,3.78024194 6.88004032,3.69254032 7.52419355,3.69254032 C8.16834677,3.69254032 8.81854839,3.78024194 9.4233871,3.94959677 C9.4233871,3.94959677 10.8780242,2.93346774 11.5100806,3.13306452 C11.9243952,4.18245968 11.6673387,4.98991935 11.5887097,5.18649194 C12.0725806,5.72177419 12.3689516,6.1391129 12.3689516,6.96774194 C12.3689516,9.88608871 10.5877016,10.1189516 8.89717742,10.3094758 C9.17540323,10.5483871 9.41129032,11.0020161 9.41129032,11.7127016 C9.41129032,12.7318548 9.40221774,13.9929435 9.40221774,14.2409274 C9.40221774,14.4375 9.54133065,14.6764113 9.92540323,14.6068548 C12.9495968,13.6028226 15,10.7328629 15,7.37903226 C15,3.18447581 11.5977823,0 7.40322581,0 Z M2.93951613,10.4304435 C2.90020161,10.4606855 2.90927419,10.5302419 2.96068548,10.5877016 C3.00907258,10.6360887 3.07862903,10.6572581 3.11794355,10.6179435 C3.15725806,10.5877016 3.14818548,10.5181452 3.09677419,10.4606855 C3.0483871,10.4122984 2.97883065,10.391129 2.93951613,10.4304435 Z M2.61290323,10.1854839 C2.59173387,10.2247984 2.62197581,10.2731855 2.68245968,10.3034274 C2.73084677,10.3336694 2.79133065,10.3245968 2.8125,10.2822581 C2.83366935,10.2429435 2.80342742,10.1945565 2.74294355,10.1643145 C2.68245968,10.1461694 2.63407258,10.1552419 2.61290323,10.1854839 Z M3.59274194,11.2620968 C3.54435484,11.3014113 3.5625,11.3921371 3.63205645,11.4495968 C3.7016129,11.5191532 3.78931452,11.5282258 3.82862903,11.4798387 C3.86794355,11.4405242 3.84979839,11.3497984 3.78931452,11.2923387 C3.72278226,11.2227823 3.63205645,11.2137097 3.59274194,11.2620968 Z M3.24798387,10.8175403 C3.19959677,10.8477823 3.19959677,10.9264113 3.24798387,10.9959677 C3.29637097,11.0655242 3.37802419,11.0957661 3.41733871,11.0655242 C3.46572581,11.0262097 3.46572581,10.9475806 3.41733871,10.8780242 C3.375,10.8084677 3.29637097,10.7782258 3.24798387,10.8175403 Z" id="Shape"></path>
            </g>
        </g>
    </g>
</svg>