<?xml version="1.0" encoding="UTF-8"?>
<svg width="15px" height="15px" viewBox="0 0 15 15" version="1.1" xmlns="http://www.w3.org/2000/svg" xmlns:xlink="http://www.w3.org/1999/xlink">
    <!-- Generator: Sketch 63.1 (92452) - https://sketch.com -->
    <title>globe-europe-solid@3x</title>
    <desc>Created with Sketch.</desc>
    <g id="Page-1" stroke="none" stroke-width="1" fill="none" fill-rule="evenodd">
        <g id="Desktop" transform="translate(-20.000000, -448.000000)" fill="#000C44" fill-rule="nonzero">
            <g id="globe-europe-solid" transform="translate(20.000000, 448.000000)">
                <path d="M7.5,0 C3.35685484,0 0,3.35685484 0,7.5 C0,11.6431452 3.35685484,15 7.5,15 C11.6431452,15 15,11.6431452 15,7.5 C15,3.35685484 11.6431452,0 7.5,0 Z M13.5483871,7.5 C13.5483871,8.18044355 13.4304435,8.83669355 13.2217742,9.44758065 L12.6078629,9.44758065 C12.4778226,9.44758065 12.3538306,9.39616935 12.2631048,9.30241935 L11.2953629,8.31653226 C11.1592742,8.17741935 11.1592742,7.95060484 11.2983871,7.81149194 L11.6764113,7.43346774 L11.6764113,7.1703629 C11.6764113,7.0796371 11.640121,6.99193548 11.5766129,6.92842742 L11.2923387,6.64415323 C11.2288306,6.58064516 11.141129,6.54435484 11.0504032,6.54435484 L10.5665323,6.54435484 C10.3790323,6.54435484 10.2247984,6.39012097 10.2247984,6.20262097 C10.2247984,6.11189516 10.2610887,6.02419355 10.3245968,5.96068548 L10.608871,5.67641129 C10.672379,5.61290323 10.7600806,5.5766129 10.8508065,5.5766129 L11.8185484,5.5766129 C12.0060484,5.5766129 12.1602823,5.42237903 12.1602823,5.23487903 L12.1602823,4.95060484 C12.1602823,4.76310484 12.0060484,4.60887097 11.8185484,4.60887097 L10.7086694,4.60887097 C10.4425403,4.60887097 10.2247984,4.8266129 10.2247984,5.09274194 L10.2247984,5.22883065 C10.2247984,5.4375 10.0917339,5.62197581 9.89516129,5.68850806 L8.93951613,6.00604839 C8.83971774,6.03931452 8.77318548,6.13004032 8.77318548,6.2358871 L8.77318548,6.30241935 C8.77318548,6.43548387 8.66431452,6.54435484 8.53125,6.54435484 L8.04737903,6.54435484 C7.91431452,6.54435484 7.80544355,6.43548387 7.80544355,6.30241935 C7.80544355,6.16935484 7.69657258,6.06048387 7.56350806,6.06048387 L7.46975806,6.06048387 C7.37903226,6.06048387 7.29435484,6.11189516 7.25201613,6.19354839 L6.96774194,6.75907258 C6.88608871,6.92237903 6.71975806,7.02520161 6.53528226,7.02520161 L5.86693548,7.02520161 C5.60080645,7.02520161 5.38306452,6.80745968 5.38306452,6.54133065 L5.38306452,5.77620968 C5.38306452,5.64919355 5.43447581,5.52520161 5.52520161,5.43447581 L6.13306452,4.8266129 C6.27217742,4.6875 6.35080645,4.49697581 6.35080645,4.29737903 C6.35080645,4.19455645 6.41733871,4.10080645 6.5171371,4.06754032 L7.72681452,3.66532258 C7.77822581,3.64717742 7.82358871,3.61995968 7.85987903,3.58366935 L8.6703629,2.77318548 C8.73387097,2.70967742 8.77016129,2.62197581 8.77016129,2.53125 C8.77016129,2.34375 8.61592742,2.18951613 8.42842742,2.18951613 L7.80241935,2.18951613 L7.31854839,2.6733871 L7.31854839,2.91532258 C7.31854839,3.0483871 7.20967742,3.15725806 7.0766129,3.15725806 L6.59274194,3.15725806 C6.45967742,3.15725806 6.35080645,3.0483871 6.35080645,2.91532258 L6.35080645,2.31048387 C6.35080645,2.23487903 6.38709677,2.16229839 6.44758065,2.11693548 L7.32157258,1.46068548 C7.37903226,1.45766129 7.43649194,1.4516129 7.49395161,1.4516129 C10.8356855,1.4516129 13.5483871,4.16431452 13.5483871,7.5 Z M3.93447581,4.2671371 C3.93447581,4.17641129 3.97076613,4.08870968 4.03427419,4.02520161 L4.80241935,3.25705645 C4.86592742,3.19354839 4.95362903,3.15725806 5.04435484,3.15725806 C5.23185484,3.15725806 5.38608871,3.31149194 5.38608871,3.49899194 L5.38608871,3.9828629 C5.38608871,4.07358871 5.34979839,4.16129032 5.28629032,4.22479839 L5.00201613,4.50907258 C4.93850806,4.57258065 4.85080645,4.60887097 4.76008065,4.60887097 L4.27620968,4.60887097 C4.08870968,4.60887097 3.93447581,4.4546371 3.93447581,4.2671371 Z M7.80544355,13.5332661 L7.80544355,13.3185484 C7.80544355,13.0524194 7.58770161,12.8346774 7.32157258,12.8346774 L6.71068548,12.8346774 C6.38407258,12.8346774 5.90322581,12.6743952 5.64012097,12.4778226 L4.96875,11.9727823 C4.62096774,11.7127016 4.41834677,11.3044355 4.41834677,10.8719758 L4.41834677,10.1491935 C4.41834677,9.66532258 4.67237903,9.21774194 5.08669355,8.96975806 L6.38407258,8.19254032 C6.59879032,8.06552419 6.84375,7.99596774 7.09173387,7.99596774 L8.03528226,7.99596774 C8.36491935,7.99596774 8.68245968,8.11391129 8.93044355,8.32560484 L10.2368952,9.44758065 L10.7903226,9.44758065 C11.047379,9.44758065 11.2923387,9.55040323 11.4737903,9.73185484 L11.9969758,10.2550403 C12.0997984,10.3578629 12.2419355,10.4153226 12.3870968,10.4153226 L12.7923387,10.4153226 C11.8125,12.1965726 9.95564516,13.4243952 7.80544355,13.5332661 Z" id="Shape"></path>
            </g>
        </g>
    </g>
</svg>