<?xml version="1.0" encoding="UTF-8"?>
<svg width="11px" height="11px" viewBox="0 0 11 11" version="1.1" xmlns="http://www.w3.org/2000/svg" xmlns:xlink="http://www.w3.org/1999/xlink">
    <!-- Generator: Sketch 63.1 (92452) - https://sketch.com -->
    <title>linkedin-in-brands@3x</title>
    <desc>Created with Sketch.</desc>
    <g id="Page-1" stroke="none" stroke-width="1" fill="none" fill-rule="evenodd">
        <g id="Desktop" transform="translate(-22.000000, -502.000000)" fill="#000C44" fill-rule="nonzero">
            <g id="linkedin-in-brands" transform="translate(22.000000, 502.000000)">
                <path d="M2.46223214,11 L0.181696429,11 L0.181696429,3.65586284 L2.46223214,3.65586284 L2.46223214,11 Z M1.32073661,2.65405476 C0.591495536,2.65405476 0,2.05002342 0,1.32076607 C0,0.591327109 0.591313928,0 1.32073661,0 C2.05015929,0 2.64147321,0.591327109 2.64147321,1.32076607 C2.64147321,2.05002342 2.04973214,2.65405476 1.32073661,2.65405476 Z M10.9975446,11 L8.72191964,11 L8.72191964,7.42492019 C8.72191964,6.57289224 8.70473214,5.48023392 7.53622768,5.48023392 C6.35053571,5.48023392 6.16883929,6.40592423 6.16883929,7.36353489 L6.16883929,11 L3.89075893,11 L3.89075893,3.65586284 L6.07799107,3.65586284 L6.07799107,4.65767092 L6.10991071,4.65767092 C6.414375,4.08064911 7.15810268,3.47170694 8.26767857,3.47170694 C10.5757143,3.47170694 11,4.99160694 11,6.96575816 L11,11 L10.9975446,11 Z" id="Shape"></path>
            </g>
        </g>
    </g>
</svg>