<?xml version="1.0" encoding="UTF-8"?>
<svg width="16px" height="8px" viewBox="0 0 16 8" version="1.1" xmlns="http://www.w3.org/2000/svg" xmlns:xlink="http://www.w3.org/1999/xlink">
    <!-- Generator: Sketch 63.1 (92452) - https://sketch.com -->
    <title>soundcloud-brands@3x</title>
    <desc>Created with Sketch.</desc>
    <g id="Page-1" stroke="none" stroke-width="1" fill="none" fill-rule="evenodd">
        <g id="Desktop" transform="translate(-20.000000, -525.000000)" fill="#000C44" fill-rule="nonzero">
            <g id="soundcloud-brands" transform="translate(20.000000, 525.000000)">
                <path d="M2.78543338,4.13175331 L2.93045595,5.79502147 L2.78543338,7.54273248 C2.77793222,7.60670433 2.73042482,7.65532294 2.67541627,7.65532294 C2.62040771,7.65532294 2.57039993,7.60670433 2.57039993,7.54273248 L2.43037814,5.79502147 L2.57039993,4.13175331 C2.57039993,4.07545808 2.61790732,4.0242806 2.67541627,4.0242806 C2.73042482,4.0242806 2.77793222,4.07545808 2.78543338,4.13175331 Z M3.32051664,2.96490672 C3.25050574,2.96490672 3.20299835,3.02120195 3.19549718,3.09285043 L3.07047773,5.79502147 L3.19549718,7.54273248 C3.20299835,7.61438095 3.25050574,7.67067618 3.32051664,7.67067618 C3.38302636,7.67067618 3.43803492,7.61438095 3.43803492,7.54273248 L3.58305748,5.79502147 L3.43803492,3.09285043 C3.43803492,3.02120195 3.38302636,2.96490672 3.32051664,2.96490672 Z M3.95811584,2.34821807 C3.88060378,2.34821807 3.82559522,2.4045133 3.81809405,2.48383839 L3.70807694,5.81037472 L3.81809405,7.54529135 C3.82559522,7.62461645 3.88060378,7.68091168 3.95811584,7.68091168 C4.02812673,7.68091168 4.09063646,7.62461645 4.09063646,7.54529135 L4.22315708,5.81037472 L4.09063646,2.48383839 C4.09063646,2.4045133 4.02812673,2.34821807 3.95811584,2.34821807 Z M0.18002801,4.82009044 C0.145022564,4.82009044 0.125019452,4.84823806 0.117518285,4.88406229 L0,5.79502147 L0.117518285,6.69062741 C0.125019452,6.72645164 0.145022564,6.75459926 0.18002801,6.75459926 C0.215033457,6.75459926 0.235036569,6.72645164 0.242537736,6.69062741 L0.382559522,5.79502147 L0.242537736,4.88406229 C0.235036569,4.84823806 0.215033457,4.82009044 0.18002801,4.82009044 Z M0.770119822,4.25969702 C0.735114376,4.25969702 0.707610096,4.28784463 0.707610096,4.32366887 L0.547585198,5.79502147 L0.707610096,7.23054984 C0.707610096,7.2740507 0.735114376,7.30219831 0.770119822,7.30219831 C0.805125269,7.30219831 0.832629548,7.2740507 0.840130715,7.23822646 L1.02015873,5.79502147 L0.840130715,4.32366887 C0.832629548,4.28784463 0.805125269,4.25969702 0.770119822,4.25969702 L0.770119822,4.25969702 Z M1.40271825,3.96798537 C1.36021163,3.96798537 1.32520619,4.00380961 1.32020541,4.05242821 L1.17518285,5.79502147 L1.32020541,7.47876063 C1.32770658,7.52226149 1.36271202,7.55808572 1.40271825,7.55808572 C1.44522486,7.55808572 1.48023031,7.52226149 1.48023031,7.47876063 L1.65275715,5.79502147 L1.48023031,4.05242821 C1.48023031,4.00380961 1.44522486,3.96798537 1.40271825,3.96798537 L1.40271825,3.96798537 Z M2.03531667,3.91169014 C1.98780928,3.91169014 1.94530267,3.94751438 1.94530267,4.00380961 L1.8002801,5.79502147 L1.94530267,7.52993811 C1.94530267,7.58623334 1.98780928,7.62205758 2.03531667,7.62205758 C2.08282406,7.62205758 2.12533068,7.58623334 2.13283185,7.52993811 L2.29285674,5.79502147 L2.13283185,4.00380961 C2.12533068,3.94751438 2.08282406,3.91169014 2.03531667,3.91169014 Z M8.0712558,1.07389877 C8.04375152,1.05342777 8.00124491,1.03807453 7.96623946,1.03807453 C7.9112309,1.03807453 7.86122312,1.05854552 7.82621767,1.08669314 C7.77871028,1.130194 7.74870561,1.19416585 7.74370484,1.2581377 L7.74370484,1.27860869 L7.661192,5.80013922 L7.70369861,6.6317733 L7.74620522,7.44293639 C7.75370639,7.56320347 7.85122156,7.66299956 7.96873985,7.66299956 C8.08625813,7.66299956 8.18377331,7.56320347 8.18377331,7.44293639 L8.28128848,5.80013922 L8.18377331,1.2581377 C8.17377175,1.18137148 8.13376553,1.109723 8.0712558,1.07389877 L8.0712558,1.07389877 Z M7.40365193,1.4654065 C7.36864648,1.44493551 7.33364103,1.42958227 7.29363481,1.42958227 C7.25362859,1.42958227 7.21612275,1.44493551 7.18361769,1.4654065 C7.12860913,1.50123074 7.09360369,1.56520259 7.09360369,1.63685107 L7.08610252,1.68035193 L7.01609163,5.79502147 C7.01609163,5.79502147 7.01609163,5.80269809 7.09360369,7.47364288 L7.09360369,7.4813195 C7.09360369,7.52482036 7.10860602,7.56576235 7.1361103,7.60158658 C7.17861691,7.65020519 7.23362547,7.68091168 7.2961352,7.68091168 C7.35114376,7.68091168 7.40115154,7.65276407 7.43615698,7.61693983 C7.4786636,7.58111559 7.49866671,7.53249698 7.49866671,7.47364288 L7.50616788,7.30219831 L7.58367994,5.80269809 L7.5011671,1.63685107 C7.49366593,1.56520259 7.45866049,1.50123074 7.40365193,1.4654065 L7.40365193,1.4654065 Z M4.61821854,2.04115317 C4.54070648,2.04115317 4.47319598,2.11280165 4.47319598,2.19724449 L4.36317886,5.79502147 L4.47319598,7.51458486 C4.48069715,7.59902771 4.54320687,7.66299956 4.61821854,7.66299956 C4.70073138,7.66299956 4.76324111,7.59902771 4.77074228,7.51458486 L4.89576173,5.79502147 L4.77074228,2.19724449 C4.7657415,2.11280165 4.70323177,2.04115317 4.61821854,2.04115317 Z M14.037184,3.64812611 C13.767142,3.64812611 13.5096019,3.70442134 13.272065,3.80421743 C13.1120401,1.99253457 11.626809,0.56980057 9.81402696,0.56980057 C9.36895771,0.56980057 8.93889079,0.654243415 8.55633127,0.810334735 C8.40380754,0.866629965 8.36130093,0.922925195 8.36130093,1.04575115 L8.36130093,7.43525977 C8.36130093,7.56320347 8.4588161,7.65532294 8.57633438,7.67067618 L14.0346836,7.67067618 C15.1173521,7.67067618 15.9999947,6.77507025 15.9999947,5.66707777 C16.0024898,4.55140866 15.1198525,3.64812611 14.037184,3.64812611 L14.037184,3.64812611 Z M6.61852977,2.10512503 C6.51351343,2.10512503 6.43100059,2.18956787 6.42349943,2.30471721 L6.34098659,5.80269809 L6.42349943,7.4813195 C6.43100059,7.58879221 6.51351343,7.67323506 6.61852977,7.67323506 C6.72354611,7.67323506 6.80605895,7.58879221 6.80605895,7.4813195 L6.90357412,5.80269809 L6.80605895,2.30471721 C6.79855778,2.18956787 6.72354611,2.10512503 6.61852977,2.10512503 Z M5.27832125,1.90553285 C5.19580841,1.90553285 5.11829635,1.98485794 5.11829635,2.07697741 L5.02078118,5.79502147 L5.11829635,7.50690824 C5.12579752,7.59902771 5.19580841,7.67067618 5.27832125,7.67067618 C5.36833525,7.67067618 5.43834615,7.59902771 5.44584731,7.50690824 L5.55586443,5.79502147 L5.44584731,2.07697741 C5.43834615,1.98485794 5.36833525,1.90553285 5.27832125,1.90553285 L5.27832125,1.90553285 Z M5.94592512,1.99253457 C5.84840995,1.99253457 5.77339828,2.07185966 5.77339828,2.16909688 L5.67588311,5.79502147 L5.77339828,7.49411387 C5.78089944,7.59390996 5.85091034,7.67067618 5.94592512,7.67067618 C6.0409399,7.67067618 6.11845196,7.59135109 6.11845196,7.49411387 L6.2234683,5.79502147 L6.11845196,2.16909688 C6.11845196,2.06930079 6.04344029,1.99253457 5.94592512,1.99253457 L5.94592512,1.99253457 Z" id="Shape"></path>
            </g>
        </g>
    </g>
</svg>